PathFileType	3	(X/Y/Z)	D:\minhoCalibration\240510\subject5_KPNP\preferred\preferred12.trc
DataRate	CameraRate	NumFrames	NumMarkers	Units	OrigDataRate	OrigDataStartFrame	OrigNumFrames
200.0	200.0	33	10	mm	200.0	234	141	
Frame#	Time	Left_Ankle_Outer1			Left_Ankle_Inner1			Left_Knee_Outer1			Left_Knee_Inner1			Left_Wrist1			Right_Wrist1			Right_Knee_Inner1			Right_Knee_Outer1			Right_Ankle_Inner1			Right_Ankle_Outer1			
		X1	Y1	Z1	X2	Y2	Z2	X3	Y3	Z3	X4	Y4	Z4	X5	Y5	Z5	X6	Y6	Z6	X7	Y7	Z7	X8	Y8	Z8	X9	Y9	Z9	X10	Y10	Z10	
234	1.16	-538.84937	75.098831	-570.56256	-571.75232	86.522125	-531.66583	-396.15182	530.26691	-528.97101	-448.65829	515.93787	-451.543	-428.12711	977.01904	-673.84216	-599.76099	1178.0377	-473.9791	-498.3483	952.51544	-46.164143	-548.16888	1025.7935	-50.030037	-490.83047	805.4906	367.53723	-578.49829	849.01099	375.72009
235	1.165	-539.07666	75.135185	-570.53931	-572.27673	86.536125	-531.13385	-397.01627	530.4895	-530.07898	-449.42697	516.19824	-452.54138	-426.10486	978.11249	-672.44781	-601.21106	1177.689	-474.76312	-502.10507	946.20148	-47.609982	-552.27997	1019.3713	-50.686535	-498.03629	792.27393	363.94241	-586.11969	834.75116	371.74539
236	1.17	-539.22418	75.131485	-570.46973	-572.57745	85.940887	-531.71527	-398.06152	530.591	-530.90155	-450.53156	516.4032	-453.27063	-424.38129	978.97668	-671.05267	-602.43353	1177.7069	-475.65405	-505.77283	939.64734	-49.154488	-556.13	1012.8149	-51.438622	-505.56625	778.83081	359.97107	-593.50323	820.49103	367.16165
237	1.175	-539.4079	75.21637	-570.37311	-573.35114	86.066223	-530.69464	-399.10226	530.77356	-531.37561	-451.2822	515.95123	-454.94379	-422.62195	979.61432	-669.8847	-603.40222	1177.7631	-476.52533	-509.5957	932.78589	-50.709515	-559.89111	1006.105	-52.253925	-513.39624	765.32874	355.39319	-601.85626	806.32544	362.72363
238	1.18	-539.57745	75.235588	-570.25018	-573.10333	85.719353	-531.33771	-400.29346	530.96655	-531.60559	-453.1969	516.80634	-454.40738	-420.82712	980.13116	-668.81519	-604.28705	1177.8466	-477.42139	-513.54779	925.61322	-52.405437	-563.4939	999.18378	-53.228188	-521.11505	751.94574	350.86569	-609.95282	791.75238	357.53836
239	1.185	-539.83118	75.234833	-570.04865	-573.63593	85.792938	-530.27704	-401.32944	531.17078	-531.67529	-454.91547	517.01288	-454.75485	-419.11301	980.66168	-667.89313	-605.00732	1177.6094	-478.198	-517.40991	918.28796	-54.267208	-566.94617	992.15442	-54.387043	-529.38721	737.61456	345.55035	-618.28381	777.20935	352.09
240	1.19	-540.02826	75.127563	-569.79449	-572.71912	86.078758	-530.51636	-402.46573	531.29071	-531.4624	-456.74271	517.30194	-455.01355	-417.55054	981.198	-667.12061	-605.69025	1177.1927	-478.80823	-521.37329	910.78076	-56.375404	-570.43011	984.85681	-55.631901	-537.89417	722.93097	339.91373	-626.83954	762.69189	346.34766
241	1.195	-540.14789	75.143715	-569.72974	-574.2171	85.357422	-530.16638	-403.39523	531.44733	-531.24915	-458.62366	517.54883	-455.3623	-415.91727	981.84772	-666.45349	-606.4538	1176.6947	-479.1926	-524.88525	903.03357	-58.692753	-573.94965	977.45636	-57.058578	-546.65186	707.98193	333.96906	-635.4032	747.76392	340.0329
242	1.2	-540.30981	75.009262	-569.5882	-574.20056	85.717468	-529.34381	-404.27002	531.46069	-531.04309	-460.42636	517.72571	-455.80499	-414.41086	982.44086	-665.90131	-607.18646	1176.1282	-479.55103	-528.84058	895.19476	-61.11908	-577.29376	969.83423	-58.785858	-555.31445	692.99329	327.38342	-644.02936	732.88629	333.33249
243	1.205	-540.57574	74.902695	-569.47272	-574.35712	85.561295	-529.33478	-404.7056	531.53699	-531.02911	-462.02335	517.93768	-456.31339	-412.87997	983.31171	-665.37439	-607.9599	1175.4988	-479.74097	-532.62573	887.18774	-63.754707	-580.81183	962.14771	-60.526268	-564.13385	677.67261	320.4538	-652.81964	717.75073	326.26062
244	1.21	-540.62024	74.900261	-569.32568	-574.31885	85.610901	-529.11774	-405.0415	531.62378	-531.05481	-463.04742	517.37848	-458.14777	-411.31055	984.15033	-664.92694	-608.7218	1174.7002	-479.82333	-536.28467	879.12836	-66.706383	-584.25031	954.21161	-62.686249	-572.95398	662.13672	312.98224	-661.30963	702.49396	318.54855
245	1.215	-540.6026	74.863167	-569.35846	-574.3974	85.49334	-529.29346	-405.44357	531.55682	-531.22351	-464.60278	517.52197	-458.95239	-409.72345	985.09601	-664.38007	-609.65753	1173.8062	-479.84552	-540.11145	870.94257	-69.697411	-587.85956	946.12384	-64.933945	-581.84271	646.58594	305.07913	-670.03473	687.13892	310.5448
246	1.22	-540.58771	74.880394	-569.5271	-574.03741	85.452278	-529.67535	-405.8761	531.453	-531.5965	-466.03296	518.29681	-458.67938	-408.26859	985.99072	-663.74878	-610.68353	1172.724	-479.78473	-543.96436	862.81995	-73.01239	-591.73962	937.96692	-67.288818	-590.63037	630.81586	296.55408	-678.78088	671.85986	302.43817
247	1.225	-540.59509	74.754433	-569.50568	-574.38147	85.563675	-529.23499	-406.14243	531.45996	-532.17877	-466.9111	518.30182	-459.58609	-406.40909	987.37274	-663.01337	-611.79926	1171.5677	-479.84274	-547.59125	854.74011	-76.447205	-595.73749	929.64459	-69.849449	-599.35492	614.89453	287.69803	-687.46857	656.23126	293.4386
248	1.23	-540.59161	74.630264	-569.70929	-574.34344	85.467552	-529.59332	-406.48206	531.53229	-532.96692	-467.64093	518.26355	-460.51639	-404.71603	988.51758	-662.11981	-613.05902	1170.3022	-479.89478	-551.79077	846.70343	-80.017151	-599.93756	921.18591	-72.591461	-608.9245	598.82489	279.13638	-695.6814	640.40228	283.61179
249	1.235	-540.54736	74.622543	-569.91107	-574.28577	85.478745	-529.87463	-406.86441	531.53699	-533.90479	-468.24878	518.36426	-461.46115	-403.16479	989.53583	-661.09106	-614.40118	1168.9407	-480.01831	-555.14532	838.67139	-83.89463	-604.29688	912.70477	-75.495941	-616.80023	582.44171	267.43365	-704.16846	624.56439	273.66446
250	1.24	-540.4259	74.554649	-570.10162	-574.07806	85.507393	-530.11884	-407.22134	531.62976	-534.87366	-468.63864	518.43652	-462.42551	-401.53424	990.57855	-659.93768	-615.90991	1167.5957	-480.19873	-558.85498	830.6084	-87.851181	-608.7204	904.05646	-78.665215	-625.11224	566.07867	256.78491	-712.85724	608.97296	263.68268
251	1.245	-540.38959	74.471161	-570.32983	-574.04266	85.455193	-530.38861	-407.90652	531.58722	-535.82935	-469.03305	518.55688	-463.38861	-399.29361	991.8479	-659.03827	-617.14612	1166.3165	-480.76108	-562.55536	822.52661	-91.997086	-613.25604	895.32001	-82.104713	-633.93884	550.83661	246.19823	-720.94244	593.02618	252.69875
252	1.25	-540.19739	74.420448	-570.54834	-573.81561	85.55365	-530.53741	-407.97061	531.8952	-536.9873	-469.37122	518.65863	-464.21924	-397.68716	992.89374	-657.71057	-618.93713	1164.9082	-480.76016	-566.32336	814.38965	-96.309967	-617.91699	886.45245	-85.74147	-641.91309	534.15344	234.92599	-728.93518	577.19995	241.4821
253	1.255	-540.06311	74.406174	-570.78955	-573.78259	85.509514	-530.72742	-408.54022	531.94873	-537.83734	-469.34109	517.9975	-466.36505	-395.6745	994.0061	-656.56116	-620.63037	1163.3513	-481.14529	-570.17072	806.25507	-100.83339	-622.67218	877.50238	-89.53199	-649.91211	518.47272	222.89146	-736.9212	560.95709	229.52536
254	1.26	-540.03778	74.242729	-570.98596	-573.51062	85.435089	-531.11505	-408.43015	532.22321	-538.9621	-469.86792	518.70642	-466.07919	-394.63385	994.85718	-654.99139	-621.89746	1161.2875	-483.07394	-573.90564	798.00488	-105.54139	-627.3634	868.45886	-93.54734	-657.34253	502.31253	209.92578	-744.2348	544.97406	216.83768
255	1.265	-539.97321	74.273315	-571.22467	-572.90625	85.307121	-532.11865	-408.70856	532.414	-539.68866	-469.30313	518.09637	-467.83524	-392.50861	996.01154	-653.99426	-623.53906	1159.6924	-483.5578	-577.79742	789.65143	-110.31923	-631.79456	859.39331	-97.681442	-665.95862	486.46451	198.21124	-751.91785	529.09491	204.21751
256	1.27	-539.74225	74.18692	-571.52106	-573.20154	85.419807	-531.87238	-408.70721	532.44897	-540.50128	-469.86588	518.28979	-468.5484	-390.90051	996.98053	-652.77704	-625.02142	1157.7065	-484.30029	-581.62872	781.23633	-115.41273	-636.53772	850.19678	-102.48963	-672.58691	470.60757	183.84967	-759.41675	513.1308	191.05853
257	1.275	-539.67035	74.129333	-571.64478	-572.44513	86.006813	-531.58698	-408.73184	532.51569	-541.0824	-470.39575	518.90961	-468.08493	-389.39853	997.79688	-651.47046	-626.52026	1155.9583	-484.9147	-585.44562	772.79199	-120.62373	-640.96588	841.07391	-107.28739	-679.94891	454.62286	170.34189	-766.33453	497.48297	177.08472
258	1.28	-539.52539	74.198563	-571.88989	-572.48486	85.398094	-532.62555	-408.75024	532.48907	-541.54742	-470.63849	518.9624	-468.66162	-387.88199	998.57867	-650.26404	-627.99725	1154.1339	-485.49799	-589.05908	764.31189	-126.08817	-645.31445	832.0202	-112.34962	-686.01862	439.79797	155.49966	-773.5083	481.27527	162.30891
259	1.285	-539.61633	74.028	-571.89423	-572.71454	85.670738	-531.80103	-408.66974	532.43604	-541.85931	-470.56912	518.45917	-470.46756	-386.39642	999.18341	-649.01746	-629.54669	1152.2229	-485.95212	-592.64539	755.84149	-131.78287	-649.74945	822.90796	-117.33936	-693.27454	424.19443	141.19576	-780.2807	465.91058	147.22281
260	1.29	-539.46423	74.005074	-571.98792	-573.38361	85.320625	-531.93414	-408.46777	532.38745	-542.08508	-471.1174	519.05682	-469.88657	-385.01733	999.87262	-647.72314	-631.05359	1150.2048	-486.29776	-596.16956	747.48853	-137.59947	-653.6601	813.90106	-122.91167	-699.72516	409.08023	126.00536	-786.89783	450.22208	131.71019
261	1.295	-539.40662	73.882515	-572.06793	-572.95172	85.445038	-533.49915	-408.2403	532.31152	-542.18231	-471.32907	519.12048	-470.49179	-383.66269	1000.4966	-646.36926	-632.40533	1147.9177	-487.01852	-599.66431	739.15686	-143.76212	-657.50153	804.91211	-128.25761	-705.93176	394.21857	110.54536	-793.06458	434.54022	115.09279
262	1.3	-539.37238	73.885887	-572.14557	-573.08099	85.345566	-533.42029	-407.78549	532.27454	-542.19775	-471.60101	519.15033	-470.96585	-382.09641	1001.2233	-645.07227	-633.8526	1145.5172	-487.42346	-602.96643	730.8158	-150.06061	-661.06152	796.02045	-133.7825	-712.29663	378.9494	94.714584	-799.48059	419.48306	98.471039
263	1.305	-539.32739	73.765854	-572.16772	-573.05756	85.313515	-533.42371	-407.41312	532.15033	-542.11896	-471.84201	519.23639	-471.49011	-380.58191	1001.9042	-643.82019	-635.15625	1142.9972	-488.01456	-606.11395	722.60052	-156.54977	-665.22614	786.78839	-140.47832	-717.66406	364.86273	77.936584	-805.38031	404.73224	81.546509
264	1.31	-539.33966	73.717873	-572.18298	-573.04816	85.576157	-532.76471	-406.85651	532.1123	-542.04395	-472.13458	519.15216	-472.21906	-378.98627	1002.5275	-642.67572	-636.5188	1140.3253	-488.50058	-609.36755	714.479	-163.18297	-669.15039	778.05682	-146.6537	-723.11432	351.17133	61.623581	-811.20807	389.80856	63.755074
265	1.315	-539.36298	73.552597	-572.1806	-573.07001	85.106148	-533.67651	-406.76379	531.79889	-541.7215	-471.71234	519.7843	-471.7962	-377.47565	1002.9626	-641.37579	-637.74176	1137.5858	-489.08075	-613.02155	706.46997	-170.08031	-672.97443	769.21216	-153.02747	-728.49146	336.89603	44.430908	-816.77991	375.42563	45.925026
266	1.32	-539.2403	73.41127	-572.28833	-573.28381	85.223732	-533.38733	-406.40173	531.6557	-541.55365	-471.94406	519.77295	-472.20056	-375.68188	1004.2387	-640.29431	-638.85529	1134.6851	-490.08481	-615.60089	698.63318	-177.49982	-676.87909	760.33801	-159.71153	-733.75433	323.05704	27.210014	-821.98517	361.293	27.488262
